<svg xmlns="http://www.w3.org/2000/svg" viewBox="0 0 640 273.704">
	<defs>
		<radialGradient r="57.627" fy="632.91693" fx="-519.01636" cy="632.917" cx="-519.016" gradientTransform="matrix(1.5725003,0,0,2.3747731,906.76718,-1114.2455)" gradientUnits="userSpaceOnUse" id="gradient">
			<stop offset="0" style="stop-color: #aa076b; stop-opacity: 1"/>
			<stop offset="1" style="stop-color: #61045f; stop-opacity: 1"/>
		</radialGradient>
	</defs>
	<g transform="translate(0,-206.29616)">
		<path d="M 22.785 417.523 C 14.685 428.503 0 452.235 0 480 c 17.369 -3.655 31.669 -15.577 44.763 -32.294 -9.877 -7.832 -17.378 -18.427 -21.978 -30.183 z m 135.689 0.032 c -4.721 11.625 -12.42 22.071 -22.139 29.978 13.131 16.808 27.473 28.798 44.903 32.466 0 -27.738 -14.659 -51.451 -22.764 -62.444 z m -67.857 -59.654 31.155 22.635 -11.9 36.625 -38.51 0 -11.9 -36.625 z m -0.004 -151.605 c 0 0 -22.979 29.638 -22.979 59.268 0 0.991 -0.041 1.978 -0.097 2.972 7.369 -1.935 15.099 -2.972 23.076 -2.972 7.974 0 15.709 1.038 23.076 2.972 -0.056 -0.994 -0.086 -1.981 -0.086 -2.972 0 -29.63 -22.99 -59.268 -22.99 -59.268 z" fill="url(#gradient)"/>
		<g transform="matrix(1.761738,0,0,1.761738,-137.60917,-938.99678)" fill="#61045f">
			<path d="m 242.665 748.995 -3.792 0 c -0.448 0 -0.816 -0.112 -1.104 -0.336 -0.288 -0.256 -0.512 -0.576 -0.672 -0.96 l -7.968 -19.728 -33.36 0 -7.968 19.728 c -0.128 0.352 -0.352 0.656 -0.672 0.912 -0.32 0.256 -0.704 0.384 -1.152 0.384 l -3.744 0 27.792 -67.92 4.848 0 27.792 67.92 m -45.456 -24.672 30.432 0 -13.824 -34.32 c -0.48 -1.12 -0.944 -2.464 -1.392 -4.032 -0.224 0.768 -0.448 1.504 -0.672 2.208 -0.224 0.704 -0.448 1.328 -0.672 1.872 l -13.872 34.272"/>
			<path d="m 251.857 765.891 0 -64.656 2.544 0 c 0.8 0 1.264 0.4 1.392 1.2 l 0.432 7.392 c 2.112 -2.88 4.592 -5.168 7.44 -6.864 2.848 -1.696 6.032 -2.544 9.552 -2.544 5.856 0 10.416 2.032 13.68 6.096 3.296 4.064 4.944 10.16 4.944 18.288 -0 3.488 -0.464 6.752 -1.392 9.792 -0.896 3.008 -2.24 5.632 -4.032 7.872 -1.76 2.208 -3.936 3.952 -6.528 5.232 -2.56 1.28 -5.52 1.92 -8.88 1.92 -3.232 0 -6.032 -0.592 -8.4 -1.776 -2.368 -1.184 -4.416 -2.928 -6.144 -5.232 l 0 23.28 -4.608 0 m 20.064 -61.776 c -3.168 0 -6.032 0.816 -8.592 2.448 -2.56 1.632 -4.848 3.904 -6.864 6.816 l 0 25.2 c 1.824 2.752 3.84 4.688 6.048 5.808 2.208 1.088 4.752 1.632 7.632 1.632 2.816 0 5.28 -0.512 7.392 -1.536 2.112 -1.024 3.872 -2.464 5.28 -4.32 1.44 -1.888 2.512 -4.128 3.216 -6.72 0.736 -2.624 1.104 -5.504 1.104 -8.64 -0 -7.104 -1.312 -12.32 -3.936 -15.648 -2.624 -3.36 -6.384 -5.04 -11.28 -5.04"/>
			<path d="m 323.644 700.467 c 3.424 0 6.48 0.592 9.168 1.776 2.72 1.152 5.008 2.8 6.864 4.944 1.856 2.144 3.264 4.736 4.224 7.776 0.992 3.008 1.488 6.384 1.488 10.128 -0 3.744 -0.496 7.12 -1.488 10.128 -0.96 3.008 -2.368 5.584 -4.224 7.728 -1.856 2.144 -4.144 3.792 -6.864 4.944 -2.688 1.152 -5.744 1.728 -9.168 1.728 -3.424 0 -6.496 -0.576 -9.216 -1.728 -2.688 -1.152 -4.976 -2.8 -6.864 -4.944 -1.856 -2.144 -3.28 -4.72 -4.272 -7.728 -0.96 -3.008 -1.44 -6.384 -1.44 -10.128 -0 -3.744 0.48 -7.12 1.44 -10.128 0.992 -3.04 2.416 -5.632 4.272 -7.776 1.888 -2.144 4.176 -3.792 6.864 -4.944 2.72 -1.184 5.792 -1.776 9.216 -1.776 m 0 45.552 c 2.848 0 5.328 -0.48 7.44 -1.44 2.144 -0.992 3.92 -2.4 5.328 -4.224 1.44 -1.824 2.512 -4.016 3.216 -6.576 0.704 -2.592 1.056 -5.488 1.056 -8.688 -0 -3.168 -0.352 -6.048 -1.056 -8.64 -0.704 -2.592 -1.776 -4.8 -3.216 -6.624 -1.408 -1.856 -3.184 -3.28 -5.328 -4.272 -2.112 -0.992 -4.592 -1.488 -7.44 -1.488 -2.848 0 -5.344 0.496 -7.488 1.488 -2.112 0.992 -3.888 2.416 -5.328 4.272 -1.408 1.824 -2.48 4.032 -3.216 6.624 -0.704 2.592 -1.056 5.472 -1.056 8.64 -0 3.2 0.352 6.096 1.056 8.688 0.736 2.56 1.808 4.752 3.216 6.576 1.44 1.824 3.216 3.232 5.328 4.224 2.144 0.96 4.64 1.44 7.488 1.44"/>
			<path d="m 363.397 679.155 0 69.84 -4.608 0 0 -69.84 4.608 0"/>
			<path d="m 384.584 679.155 0 69.84 -4.608 0 0 -69.84 4.608 0"/>
			<path d="m 419.644 700.467 c 3.424 0 6.48 0.592 9.168 1.776 2.72 1.152 5.008 2.8 6.864 4.944 1.856 2.144 3.264 4.736 4.224 7.776 0.992 3.008 1.488 6.384 1.488 10.128 -0 3.744 -0.496 7.12 -1.488 10.128 -0.96 3.008 -2.368 5.584 -4.224 7.728 -1.856 2.144 -4.144 3.792 -6.864 4.944 -2.688 1.152 -5.744 1.728 -9.168 1.728 -3.424 0 -6.496 -0.576 -9.216 -1.728 -2.688 -1.152 -4.976 -2.8 -6.864 -4.944 -1.856 -2.144 -3.28 -4.72 -4.272 -7.728 -0.96 -3.008 -1.44 -6.384 -1.44 -10.128 -0 -3.744 0.48 -7.12 1.44 -10.128 0.992 -3.04 2.416 -5.632 4.272 -7.776 1.888 -2.144 4.176 -3.792 6.864 -4.944 2.72 -1.184 5.792 -1.776 9.216 -1.776 m 0 45.552 c 2.848 0 5.328 -0.48 7.44 -1.44 2.144 -0.992 3.92 -2.4 5.328 -4.224 1.44 -1.824 2.512 -4.016 3.216 -6.576 0.704 -2.592 1.056 -5.488 1.056 -8.688 -0 -3.168 -0.352 -6.048 -1.056 -8.64 -0.704 -2.592 -1.776 -4.8 -3.216 -6.624 -1.408 -1.856 -3.184 -3.28 -5.328 -4.272 -2.112 -0.992 -4.592 -1.488 -7.44 -1.488 -2.848 0 -5.344 0.496 -7.488 1.488 -2.112 0.992 -3.888 2.416 -5.328 4.272 -1.408 1.824 -2.48 4.032 -3.216 6.624 -0.704 2.592 -1.056 5.472 -1.056 8.64 -0 3.2 0.352 6.096 1.056 8.688 0.736 2.56 1.808 4.752 3.216 6.576 1.44 1.824 3.216 3.232 5.328 4.224 2.144 0.96 4.64 1.44 7.488 1.44"/>
		</g>
	</g>
</svg>
