<svg xmlns="http://www.w3.org/2000/svg" viewBox="0 0 640 190.958">
	<defs>
		<radialGradient r="95.444" fy="642.72223" fx="-519.01636" cy="642.722" cx="-519.016" gradientTransform="matrix(1.3867725,0,0,0.99411235,852.11707,-255.01351)" gradientUnits="userSpaceOnUse" id="gradient">
			<stop offset="0" style="stop-color: #f09819; stop-opacity: 1"/>
			<stop offset="1" style="stop-color: #ff512f; stop-opacity: 1"/>
		</radialGradient>
	</defs>
	<g transform="translate(0,-289.04235)">
		<path d="m 33.55 289.042 c 0 0 -0.163 27.47 18.888 38.469 15.175 8.762 30.056 -0.019 30.056 -0.019 C 61.139 343.934 30.762 352.366 0 342.098 0 331.872 13.581 305.448 33.55 289.042 z m 197.618 0 c 0 0 0.163 27.47 -18.888 38.469 -15.175 8.762 -30.056 -0.019 -30.056 -0.019 21.355 16.441 51.732 24.873 82.494 14.605 0 -10.226 -13.581 -36.65 -33.55 -53.056 z M 112.607 446.814 c 11.711 5.88 19.752 17.996 19.752 31.993 0 -13.676 7.67 -25.563 18.945 -31.585 -12.494 3.78 -26.199 3.54 -38.697 -0.408 z" fill="url(#gradient)"/>
		<g transform="matrix(1.5536594,0,0,1.5536594,-68.908157,-1072.9096)" fill="#ff512f">
			<path d="m 220.679 987.325 c 0.32 0 0.592 0.112 0.816 0.336 l 1.92 2.064 c -1.408 1.504 -2.944 2.864 -4.608 4.08 -1.632 1.184 -3.44 2.208 -5.424 3.072 -1.952 0.832 -4.112 1.472 -6.48 1.92 -2.336 0.48 -4.912 0.72 -7.728 0.72 -4.704 0 -9.024 -0.816 -12.96 -2.448 -3.904 -1.664 -7.264 -4 -10.08 -7.008 -2.816 -3.04 -5.008 -6.704 -6.576 -10.992 -1.536 -4.288 -2.304 -9.056 -2.304 -14.304 0 -5.152 0.8 -9.856 2.4 -14.112 1.6 -4.256 3.84 -7.904 6.72 -10.944 2.88 -3.072 6.336 -5.44 10.368 -7.104 4.032 -1.696 8.48 -2.544 13.344 -2.544 4.64 0 8.752 0.72 12.336 2.16 3.584 1.44 6.848 3.472 9.792 6.096 l -1.488 2.16 c -0.256 0.384 -0.656 0.576 -1.2 0.576 -0.384 0 -1.008 -0.352 -1.872 -1.056 -0.864 -0.704 -2.064 -1.472 -3.6 -2.304 -1.536 -0.864 -3.456 -1.648 -5.76 -2.352 -2.272 -0.704 -5.008 -1.056 -8.208 -1.056 -4.096 0 -7.856 0.704 -11.28 2.112 -3.392 1.408 -6.32 3.424 -8.784 6.048 -2.432 2.624 -4.336 5.824 -5.712 9.6 -1.376 3.776 -2.064 8.016 -2.064 12.72 -0 4.8 0.688 9.088 2.064 12.864 1.408 3.776 3.328 6.976 5.76 9.6 2.432 2.592 5.296 4.592 8.592 6 3.328 1.376 6.912 2.064 10.752 2.064 2.432 0 4.592 -0.16 6.48 -0.48 1.92 -0.32 3.68 -0.8 5.28 -1.44 1.6 -0.64 3.088 -1.424 4.464 -2.352 1.376 -0.928 2.736 -2.016 4.08 -3.264 0.16 -0.128 0.32 -0.224 0.48 -0.288 0.16 -0.096 0.32 -0.144 0.48 -0.144"/>
			<path d="m 234.386 998.749 0 -69.84 4.608 0 0 30.192 c 2.208 -2.72 4.72 -4.88 7.536 -6.48 2.848 -1.6 6.032 -2.4 9.552 -2.4 2.624 0 4.928 0.416 6.912 1.248 2.016 0.832 3.68 2.032 4.992 3.6 1.312 1.568 2.304 3.456 2.976 5.664 0.672 2.208 1.008 4.704 1.008 7.488 l 0 30.528 -4.608 0 0 -30.528 c -0 -4.48 -1.024 -7.984 -3.072 -10.512 -2.048 -2.56 -5.168 -3.84 -9.36 -3.84 -3.136 0 -6.048 0.8 -8.736 2.4 -2.688 1.568 -5.088 3.76 -7.2 6.576 l 0 35.904 -4.608 0"/>
			<path d="m 316.637 998.749 c -0.96 0 -1.552 -0.448 -1.776 -1.344 l -0.672 -6.096 c -1.312 1.28 -2.624 2.432 -3.936 3.456 -1.28 1.024 -2.624 1.888 -4.032 2.592 -1.408 0.704 -2.928 1.232 -4.56 1.584 -1.632 0.384 -3.424 0.576 -5.376 0.576 -1.632 0 -3.216 -0.24 -4.752 -0.72 -1.536 -0.48 -2.912 -1.216 -4.128 -2.208 -1.184 -0.992 -2.144 -2.256 -2.88 -3.792 -0.704 -1.568 -1.056 -3.44 -1.056 -5.616 0 -2.016 0.576 -3.888 1.728 -5.616 1.152 -1.728 2.96 -3.232 5.424 -4.512 2.464 -1.28 5.616 -2.304 9.456 -3.072 3.872 -0.768 8.512 -1.216 13.92 -1.344 l 0 -4.992 c -0 -4.416 -0.96 -7.808 -2.88 -10.176 -1.888 -2.4 -4.704 -3.6 -8.448 -3.6 -2.304 0 -4.272 0.32 -5.904 0.96 -1.6 0.64 -2.96 1.344 -4.08 2.112 -1.12 0.768 -2.032 1.472 -2.736 2.112 -0.704 0.64 -1.296 0.96 -1.776 0.96 -0.352 0 -0.64 -0.08 -0.864 -0.24 -0.224 -0.16 -0.416 -0.368 -0.576 -0.624 l -0.816 -1.392 c 2.496 -2.496 5.12 -4.384 7.872 -5.664 2.752 -1.28 5.872 -1.92 9.36 -1.92 2.56 0 4.8 0.416 6.72 1.248 1.92 0.8 3.504 1.968 4.752 3.504 1.28 1.504 2.24 3.344 2.88 5.52 0.64 2.144 0.96 4.544 0.96 7.2 l 0 31.104 -1.824 0 m -19.2 -2.544 c 1.856 0 3.552 -0.192 5.088 -0.576 1.568 -0.416 3.008 -0.976 4.32 -1.68 1.344 -0.736 2.592 -1.6 3.744 -2.592 1.152 -0.992 2.288 -2.064 3.408 -3.216 l 0 -12.432 c -4.544 0.128 -8.464 0.48 -11.76 1.056 -3.296 0.544 -6.016 1.296 -8.16 2.256 -2.112 0.96 -3.68 2.112 -4.704 3.456 -0.992 1.312 -1.488 2.816 -1.488 4.512 0 1.6 0.256 2.992 0.768 4.176 0.544 1.152 1.248 2.112 2.112 2.88 0.896 0.736 1.92 1.28 3.072 1.632 1.152 0.352 2.352 0.528 3.6 0.528"/>
			<path d="m 333.761 998.749 0 -47.76 2.448 0 c 0.544 0 0.928 0.112 1.152 0.336 0.224 0.224 0.368 0.608 0.432 1.152 l 0.336 10.032 c 0.736 -1.952 1.568 -3.68 2.496 -5.184 0.96 -1.536 2.048 -2.832 3.264 -3.888 1.248 -1.056 2.624 -1.856 4.128 -2.4 1.536 -0.576 3.232 -0.864 5.088 -0.864 0.992 0 1.968 0.096 2.928 0.288 0.96 0.16 1.808 0.464 2.544 0.912 l -0.384 3.168 c -0.16 0.512 -0.464 0.768 -0.912 0.768 -0.384 0 -0.976 -0.112 -1.776 -0.336 -0.768 -0.224 -1.792 -0.336 -3.072 -0.336 -1.856 0 -3.504 0.288 -4.944 0.864 -1.44 0.576 -2.72 1.424 -3.84 2.544 -1.12 1.088 -2.112 2.464 -2.976 4.128 -0.832 1.632 -1.6 3.52 -2.304 5.664 l 0 30.912 -4.608 0"/>
			<path d="m 383.986 950.221 c 3.424 0 6.48 0.592 9.168 1.776 2.72 1.152 5.008 2.8 6.864 4.944 1.856 2.144 3.264 4.736 4.224 7.776 0.992 3.008 1.488 6.384 1.488 10.128 -0 3.744 -0.496 7.12 -1.488 10.128 -0.96 3.008 -2.368 5.584 -4.224 7.728 -1.856 2.144 -4.144 3.792 -6.864 4.944 -2.688 1.152 -5.744 1.728 -9.168 1.728 -3.424 0 -6.496 -0.576 -9.216 -1.728 -2.688 -1.152 -4.976 -2.8 -6.864 -4.944 -1.856 -2.144 -3.28 -4.72 -4.272 -7.728 -0.96 -3.008 -1.44 -6.384 -1.44 -10.128 0 -3.744 0.48 -7.12 1.44 -10.128 0.992 -3.04 2.416 -5.632 4.272 -7.776 1.888 -2.144 4.176 -3.792 6.864 -4.944 2.72 -1.184 5.792 -1.776 9.216 -1.776 m 0 45.552 c 2.848 0 5.328 -0.48 7.44 -1.44 2.144 -0.992 3.92 -2.4 5.328 -4.224 1.44 -1.824 2.512 -4.016 3.216 -6.576 0.704 -2.592 1.056 -5.488 1.056 -8.688 -0 -3.168 -0.352 -6.048 -1.056 -8.64 -0.704 -2.592 -1.776 -4.8 -3.216 -6.624 -1.408 -1.856 -3.184 -3.28 -5.328 -4.272 -2.112 -0.992 -4.592 -1.488 -7.44 -1.488 -2.848 0 -5.344 0.496 -7.488 1.488 -2.112 0.992 -3.888 2.416 -5.328 4.272 -1.408 1.824 -2.48 4.032 -3.216 6.624 -0.704 2.592 -1.056 5.472 -1.056 8.64 -0 3.2 0.352 6.096 1.056 8.688 0.736 2.56 1.808 4.752 3.216 6.576 1.44 1.824 3.216 3.232 5.328 4.224 2.144 0.96 4.64 1.44 7.488 1.44"/>
			<path d="m 418.699 998.749 0 -47.76 2.544 0 c 0.8 0 1.264 0.4 1.392 1.2 l 0.432 7.2 c 2.208 -2.784 4.752 -5.008 7.632 -6.672 2.88 -1.664 6.112 -2.496 9.696 -2.496 2.624 0 4.928 0.416 6.912 1.248 2.016 0.832 3.68 2.032 4.992 3.6 1.312 1.568 2.304 3.456 2.976 5.664 0.672 2.208 1.008 4.704 1.008 7.488 l 0 30.528 -4.608 0 0 -30.528 c -0 -4.48 -1.024 -7.984 -3.072 -10.512 -2.048 -2.56 -5.168 -3.84 -9.36 -3.84 -3.136 0 -6.048 0.8 -8.736 2.4 -2.688 1.568 -5.088 3.76 -7.2 6.576 l 0 35.904 -4.608 0"/>
		</g>
	</g>
</svg>
