<svg xmlns="http://www.w3.org/2000/svg" viewBox="0 0 920 417.43378">
	<g transform="matrix(1.25,0,0,-1.25,0,417.43377)" fill="#000000">
		<path d="m 77.594156,272.29302 c 0,-11.56897 -0.440067,-28.96413 -1.326601,-52.16995 -0.885565,-23.20583 -1.331838,-40.59885 -1.331838,-52.17578 0,-5.66695 0.05993,-14.05363 0.180371,-25.15345 0.114429,-11.10505 0.174165,-19.43102 0.174165,-24.97831 0,-25.864653 -2.362087,-46.834458 -7.082771,-62.895063 C 61.828352,33.190775 50.433932,15.766584 34.016658,2.6591996 31.774043,0.8864025 30.176303,0 29.227705,0 28.403428,0 27.463364,0.6523077 26.394325,1.9478193 18.008342,11.402763 9.7420835,19.843304 1.5902188,27.282938 0.52956802,28.229209 0,29.115549 0,29.942154 c 0,0.94627 0.65154359,2.006969 1.9470591,3.18811 8.0313883,6.970669 13.4619199,12.168658 16.3037179,15.591445 4.363898,5.66773 7.674583,12.577888 9.916229,20.728922 2.955567,10.863392 4.433641,33.242999 4.433641,67.139219 l -0.182698,26.75119 c 0,11.10563 -0.703642,28.99322 -2.121205,53.68468 -1.416011,23.73531 -2.129738,41.62891 -2.129738,53.67499 0,3.42512 1.712363,5.13768 5.137477,5.13768 2.242422,0 5.613037,-0.17456 10.09885,-0.53142 4.484262,-0.35493 7.857204,-0.52948 10.09885,-0.52948 2.242616,0 5.552525,0.17455 9.916345,0.52948 4.37216,0.35686 7.622334,0.53142 9.752072,0.53142 2.946258,0 4.423556,-1.18308 4.423556,-3.54537 z"/>
		<path d="m 273.51068,260.24694 c 0,-0.46935 -0.17261,-1.53025 -0.52947,-3.19044 -4.60626,-27.04599 -6.90842,-50.37206 -6.90842,-69.97201 0,-1.18114 1.47594,-27.69824 4.43171,-79.54973 l 0.17455,-2.47652 c 0.12025,-3.42511 -1.44879,-5.135928 -4.68965,-5.135928 -3.25057,0 -8.15356,-0.38789 -14.70511,-1.152238 -6.56125,-0.773463 -11.43321,-1.152243 -14.62365,-1.152243 -2.24203,0 -3.95459,4.129719 -5.13573,12.403529 -1.18114,8.26391 -2.30215,12.39286 -3.36305,12.39286 -0.71373,0 -3.89447,-2.30235 -9.56937,-6.90104 -6.97048,-5.67452 -13.4619,-9.98598 -19.48591,-12.93999 -9.33276,-4.720488 -18.65951,-7.08277 -27.99246,-7.08277 -22.91083,0 -42.22238,9.15044 -57.92826,27.46317 -14.877909,17.47661 -22.325302,37.84867 -22.325302,61.11482 0,26.22151 7.499565,47.8971 22.499472,65.01879 15.71441,17.83348 36.38107,26.75119 62.01105,26.75119 18.06815,0 33.83435,-6.25869 47.29819,-18.78189 2.00735,-2.35646 5.13573,-5.78739 9.38512,-10.2734 0.35686,-0.35492 0.71373,-0.52948 1.06865,-0.52948 0.70597,0 1.71256,3.71992 3.00813,11.15975 1.30333,7.43982 2.95382,11.15974 4.96312,11.15974 3.18849,0 9.15044,-0.88634 17.8936,-2.65126 9.68186,-2.12955 14.52279,-4.02442 14.52279,-5.67491 z m -45.1762,-74.04899 c 0,14.5226 -4.30952,26.98567 -12.93049,37.37932 -9.09226,11.22181 -20.72912,16.82689 -34.89718,16.82689 -14.1733,0 -25.9851,-5.54496 -35.4317,-16.65233 -9.10041,-10.62833 -13.6446,-23.14377 -13.6446,-37.55388 0,-14.29607 4.54419,-26.69126 13.6446,-37.2069 9.4466,-10.98519 21.2584,-16.47798 35.4317,-16.47798 13.81896,0 25.38793,5.61478 34.72263,16.83484 8.74121,10.50808 13.10504,22.79641 13.10504,36.85004 z"/>
		<path d="m 393.828,266.26901 c 0,-12.99255 -0.88634,-24.79619 -2.65902,-35.42452 -0.35687,-2.72109 -1.53801,-4.07678 -3.5473,-4.07678 -2.47671,0 -6.22766,0.26571 -11.24896,0.79519 -5.01549,0.53141 -8.82656,0.79518 -11.42545,0.79518 -14.87966,0 -24.38697,-4.18927 -28.52387,-12.57556 -2.47671,-5.07561 -3.71992,-15.65157 -3.71992,-31.71411 l 0,-19.48417 c 0,-6.61555 0.26571,-16.65234 0.79519,-30.11637 0.53723,-13.46966 0.80294,-23.50781 0.80294,-30.12181 0,-3.19024 -1.36345,-4.780418 -4.07484,-4.780418 -3.65979,0 -9.21251,0.0597 -16.65234,0.17417 -7.43983,0.12044 -12.99448,0.1825 -16.65234,0.1825 -2.72108,0 -4.07677,1.475948 -4.07677,4.423748 0,9.56938 0.14352,23.97755 0.44026,43.22917 0.2948,19.25066 0.44608,33.72186 0.44608,43.40334 0,29.17553 -2.71915,52.61603 -8.15162,70.33702 -0.23468,0.93871 -0.35492,1.6505 -0.35492,2.11985 0,1.41775 0.77191,2.42434 2.30215,3.01588 4.37158,0.46936 10.51584,1.18114 18.42502,2.12179 12.75787,2.36228 18.6597,3.54536 17.72099,3.54536 1.88517,0 3.12838,-3.48524 3.71992,-10.45571 0.5896,-6.96272 1.65049,-10.44796 3.1885,-10.44796 0.23467,0 0.53141,0.11443 0.87858,0.34911 4.84869,3.07601 9.68962,6.14426 14.53249,9.21251 5.31028,3.19043 10.75051,5.55272 16.29547,7.09072 4.60626,1.41776 10.51584,2.12179 17.72099,2.12179 9.21251,0 13.81877,-1.23545 13.81877,-3.71992 z"/>
		<path d="m 567.56235,217.19834 c 0,-16.65234 -0.53141,-26.34177 -1.59231,-29.05335 -1.77268,-5.31843 -11.34011,-20.84936 -28.70424,-46.59202 -17.83542,-26.33595 -28.46374,-40.21542 -31.88886,-41.630658 -1.65049,-0.71353 -6.61361,-1.068841 -14.87965,-1.068841 -7.91694,0 -13.1128,0.355311 -15.59145,1.068841 -3.30293,1.060698 -14.11356,14.408178 -32.41834,40.038148 -17.83348,24.91839 -27.81014,40.09343 -29.93968,45.52532 -2.83358,7.44002 -4.24939,18.95469 -4.24939,34.54613 0,4.84093 0.11249,12.10815 0.34716,21.79001 0.24244,9.68962 0.35687,16.94714 0.35687,21.79583 0,2.59114 1.30332,3.89447 3.90222,3.89447 3.89253,0 9.71096,-0.17456 17.44752,-0.53142 7.73463,-0.35492 13.55306,-0.52948 17.44753,-0.52948 2.1276,0 3.1885,-1.18114 3.1885,-3.54536 0,-3.78004 -0.23468,-9.35603 -0.70403,-16.74349 -0.47711,-7.37971 -0.71179,-12.96346 -0.71179,-16.7435 0,-10.863 0.5896,-20.78148 1.77268,-29.75931 0.59154,-4.48407 6.58258,-15.46926 17.98476,-32.95557 11.39442,-17.47662 18.44829,-26.21182 21.16744,-26.21182 2.59889,0 9.03213,8.56104 19.31136,25.68215 10.15315,16.77278 15.59144,27.34098 16.29741,31.71256 0.94646,5.90958 1.41582,16.06274 1.41582,30.4711 0,3.90223 -0.38596,9.74393 -1.15205,17.53868 -0.76415,7.79669 -1.15011,13.64421 -1.15011,17.53868 0,1.77268 0.88634,2.65902 2.65902,2.65902 3.89447,0 9.62174,0.20558 17.18182,0.62257 7.56201,0.40923 13.22722,0.62063 17.0092,0.62063 3.65785,0 5.49259,-16.71246 5.49259,-50.13932 z"/>
		<path d="m 631.17134,311.80208 c 0,-14.53055 -8.09149,-21.79001 -24.27448,-21.79001 -16.41766,0 -24.62164,7.25946 -24.62164,21.79001 0,6.49143 2.53683,11.87153 7.61244,16.12093 4.72844,4.01665 10.39559,6.02401 17.0092,6.02401 6.61361,0 12.31179,-2.06942 17.09842,-6.19857 4.78081,-4.13496 7.17606,-9.45494 7.17606,-15.94637 z m -1.24321,-48.00978 c 0,-9.09226 -0.5605,-22.82763 -1.68152,-41.19058 -1.12102,-18.3649 -1.68153,-32.15438 -1.68153,-41.36689 0,-8.62155 0.17262,-21.52275 0.52948,-38.70611 0.35686,-17.19016 0.52948,-30.03085 0.52948,-38.53196 0,-2.48408 -1.05896,-3.72747 -3.1885,-3.72747 l -34.54788,0 c -2.47671,0 -3.71992,2.42434 -3.71992,7.26547 0,8.15336 0.21335,20.40328 0.62258,36.76062 0.41698,16.36375 0.62063,28.67477 0.62063,36.93945 0,9.21251 -0.68076,23.03108 -2.03839,41.4561 -1.35569,18.42502 -2.03645,32.24379 -2.03645,41.4563 0,2.00929 1.24126,3.00812 3.71991,3.00812 2.12761,0 5.40144,-0.2948 9.83315,-0.88634 4.4317,-0.5896 7.76566,-0.88634 10.00769,-0.88634 2.24203,0 5.58375,0.29674 10.00769,0.88634 4.43171,0.59154 7.76567,0.88634 10.01546,0.88634 2.00735,0 3.00812,-1.12101 3.00812,-3.36305 z"/>
		<path d="m 736,154.48384 c 0,-17.59919 -7.0306,-31.71276 -21.08404,-42.34283 -12.75787,-9.68206 -28.28919,-14.523179 -46.59203,-14.523179 -7.08296,0 -11.09961,0.174941 -12.04608,0.531804 -2.00736,0.946267 -3.01588,3.840355 -3.01588,8.680705 0,2.59928 -0.31808,6.49336 -0.96974,11.69135 -0.65167,5.19566 -0.9775,9.03815 -0.9775,11.51486 0,1.53801 1.06865,2.53878 3.19044,3.01608 1.538,0.34697 3.71991,0.34697 6.55349,0 3.66561,-0.35686 5.43247,-0.53956 5.31804,-0.53956 22.31949,0 33.47923,6.85799 33.47923,20.55476 0,6.49336 -4.89524,12.46268 -14.69735,17.89535 -15.9483,8.73384 -25.10069,14.11356 -27.46491,16.12131 -9.80211,8.37814 -14.70511,19.36333 -14.70511,32.94742 0,17.71323 6.67568,31.532 20.02509,41.45629 12.04608,8.85759 27.28067,13.28929 45.70568,13.28929 1.65244,0 2.86461,-0.77385 3.62876,-2.30409 0.7661,-1.53801 2.24204,-6.31688 4.43171,-14.34825 2.18191,-8.03137 3.27383,-12.88005 3.27383,-14.53055 0,-1.29557 -1.12102,-2.12178 -3.36499,-2.47865 -7.56008,-1.06671 -15.17446,-2.06748 -22.85672,-3.01394 -9.09032,-2.47865 -13.63645,-7.43983 -13.63645,-14.87966 0,-5.31804 4.7808,-10.69039 14.34824,-16.12286 14.17562,-7.90918 23.1457,-13.64421 26.92574,-17.18162 C 731.15907,180.70536 736,168.89356 736,154.48384 z"/>
		<path d="m 469.34536,265.83069 c -2.12178,0.0213 -3.81882,-0.5159 -4.71874,-1.41776 -2.1373,-2.13536 -2.21294,-8.52205 -2.20518,-17.00726 0,-1.12102 0,-2.11403 0,-3.31068 -0.008,-8.524 0.0601,-14.86415 2.20518,-17.00921 2.41659,-2.41658 10.45377,-2.45537 17.47661,4.56941 1.74359,1.74941 2.75018,3.77228 3.46197,5.82424 0.008,0.0155 0.15322,-0.0136 0.15904,0 0.70597,-0.097 1.4546,-0.15127 2.20518,-0.15127 0.74282,0 1.4934,0.0543 2.20518,0.15127 0.0524,0.008 0.10667,0 0.15904,0 0.71179,-2.05196 1.71256,-4.07483 3.46196,-5.82424 7.02285,-7.02478 15.06197,-6.98599 17.47856,-4.56941 2.14312,2.14506 2.20324,8.48521 2.20324,17.00921 0,1.19665 0,2.18966 0,3.31068 0,8.48521 -0.0679,14.8719 -2.20324,17.00726 -0.90961,0.90186 -2.5989,1.43909 -4.72068,1.41776 -3.54537,-0.0466 -8.37078,-1.60007 -12.75788,-5.98522 -1.80371,-1.80371 -2.92472,-3.85762 -3.621,-5.98522 -0.71178,0.0989 -1.46236,0.31807 -2.20518,0.31807 -0.75058,0 -1.49921,-0.21916 -2.20518,-0.31807 -0.69628,2.1276 -1.81729,4.18151 -3.62101,5.98522 -4.39291,4.38515 -9.22026,5.93867 -12.75787,5.98522 z"/>
		<path d="m 492.6501,211.97921 c 0,-2.60666 -2.11402,-4.7265 -4.72068,-4.7265 -2.61441,0 -4.7265,2.11984 -4.7265,4.7265 0,2.60665 2.11209,4.72844 4.7265,4.72844 2.60666,0 4.72068,-2.12179 4.72068,-4.72844 z"/>
		<path d="m 492.6501,185.66091 c 0,-2.61461 -2.11402,-4.72902 -4.72068,-4.72902 -2.61441,0 -4.7265,2.11441 -4.7265,4.72902 0,2.60452 2.11209,4.71836 4.7265,4.71836 2.60666,0 4.72068,-2.11384 4.72068,-4.71836 z"/>
	</g>
</svg>
