<?xml version="1.0" encoding="UTF-8" standalone="no"?>
<!-- Created with Inkscape (http://www.inkscape.org/) -->

<svg
   xmlns:dc="http://purl.org/dc/elements/1.1/"
   xmlns:cc="http://creativecommons.org/ns#"
   xmlns:rdf="http://www.w3.org/1999/02/22-rdf-syntax-ns#"
   xmlns:svg="http://www.w3.org/2000/svg"
   xmlns="http://www.w3.org/2000/svg"
   xmlns:sodipodi="http://sodipodi.sourceforge.net/DTD/sodipodi-0.dtd"
   xmlns:inkscape="http://www.inkscape.org/namespaces/inkscape"
   width="750"
   height="250"
   id="svg2"
   version="1.1"
   inkscape:version="0.48.2 r9819"
   sodipodi:docname="jarvis-logo.svg">
  <defs
     id="defs4" />
  <sodipodi:namedview
     id="base"
     pagecolor="#ffffff"
     bordercolor="#666666"
     borderopacity="1.0"
     inkscape:pageopacity="0.0"
     inkscape:pageshadow="2"
     inkscape:zoom="0.98994949"
     inkscape:cx="699.42446"
     inkscape:cy="215.73908"
     inkscape:document-units="px"
     inkscape:current-layer="text2985"
     showgrid="false"
     inkscape:object-paths="false"
     inkscape:snap-intersection-paths="false"
     inkscape:object-nodes="false"
     inkscape:snap-smooth-nodes="false"
     inkscape:snap-nodes="true"
     inkscape:snap-object-midpoints="true"
     inkscape:window-width="1600"
     inkscape:window-height="838"
     inkscape:window-x="-8"
     inkscape:window-y="-8"
     inkscape:window-maximized="1" />
  <metadata
     id="metadata7">
    <rdf:RDF>
      <cc:Work
         rdf:about="">
        <dc:format>image/svg+xml</dc:format>
        <dc:type
           rdf:resource="http://purl.org/dc/dcmitype/StillImage" />
        <dc:title />
      </cc:Work>
    </rdf:RDF>
  </metadata>
  <g
     inkscape:label="Layer 1"
     inkscape:groupmode="layer"
     id="layer1"
     transform="translate(0,-802.36215)">
    <g
       style="font-size:300px;font-style:normal;font-variant:normal;font-weight:normal;font-stretch:normal;line-height:125%;letter-spacing:0px;word-spacing:0px;fill:#000000;fill-opacity:1;stroke:none;font-family:Archive;-inkscape-font-specification:Archive"
       id="text2985"
       transform="translate(-5.555839,-19.445437)">
      <g
         id="g3015"
         transform="matrix(3.24778,0,0,3.24778,-301.95652,-374.0755)">
        <path
           inkscape:connector-curvature="0"
           id="path2990"
           style="font-size:72px;font-family:Berlin Sans FB;-inkscape-font-specification:Berlin Sans FB"
           d="m 152.4302,386.72646 c -2e-5,2.29692 -0.0879,5.74809 -0.26368,10.35352 -0.17579,4.6055 -0.26368,8.05667 -0.26367,10.35351 -1e-5,1.12503 0.0117,2.78909 0.0352,4.99219 0.0234,2.20315 0.0351,3.85549 0.0352,4.95703 -2e-5,5.13283 -0.46877,9.29298 -1.40625,12.48047 -1.26564,4.3125 -3.52736,7.76953 -6.78516,10.3711 -0.44532,0.35155 -0.76173,0.52733 -0.94922,0.52734 -0.16407,-10e-6 -0.35157,-0.12891 -0.5625,-0.38672 -1.66407,-1.875 -3.30469,-3.55078 -4.92187,-5.02734 -0.21094,-0.1875 -0.31641,-0.36328 -0.31641,-0.52735 0,-0.1875 0.12891,-0.39843 0.38672,-0.63281 1.59375,-1.38281 2.67187,-2.41406 3.23437,-3.09375 0.86719,-1.12499 1.52344,-2.49609 1.96875,-4.11328 0.58593,-2.15624 0.8789,-6.59764 0.87891,-13.32422 l -0.0352,-5.30859 c 0,-2.2031 -0.14063,-5.75388 -0.42187,-10.65235 -0.28126,-4.71089 -0.42188,-8.26167 -0.42188,-10.65234 0,-0.67964 0.33984,-1.01948 1.01953,-1.01953 0.44531,5e-5 1.11328,0.0352 2.00391,0.10547 0.89062,0.0704 1.55858,0.10551 2.00391,0.10547 0.4453,4e-5 1.10155,-0.0351 1.96875,-0.10547 0.86717,-0.0703 1.5117,-0.10542 1.93359,-0.10547 0.58592,5e-5 0.87889,0.23442 0.87891,0.70312 z" />
        <path
           inkscape:connector-curvature="0"
           id="path2992"
           style="font-size:72px;font-family:Berlin Sans FB;-inkscape-font-specification:Berlin Sans FB"
           d="m 191.30914,389.11722 c -3e-5,0.0938 -0.0352,0.30472 -0.10547,0.63281 -0.91409,5.36721 -1.37113,9.99612 -1.37109,13.88672 -4e-5,0.23439 0.29293,5.4961 0.87891,15.78516 l 0.0352,0.49218 c 0.0234,0.67969 -0.28714,1.01953 -0.93164,1.01953 -0.64456,0 -1.61722,0.0762 -2.91797,0.22852 -1.30081,0.15234 -2.26761,0.22852 -2.90039,0.22852 -0.44534,0 -0.78518,-0.82032 -1.01953,-2.46094 -0.2344,-1.64062 -0.45706,-2.46094 -0.66797,-2.46094 -0.14065,0 -0.77346,0.45704 -1.89843,1.37109 -1.38284,1.12501 -2.6719,1.98047 -3.86719,2.56641 -1.85159,0.9375 -3.70315,1.40625 -5.55469,1.40625 -4.54689,0 -8.37891,-1.8164 -11.49609,-5.44922 -2.95313,-3.46874 -4.42969,-7.5117 -4.42969,-12.1289 0,-5.20311 1.48828,-9.50388 4.46484,-12.90235 3.11718,-3.53903 7.21874,-5.30856 12.30469,-5.30859 3.58592,3e-5 6.71482,1.24222 9.38672,3.72656 0.39841,0.46878 1.0195,1.14847 1.86328,2.03906 0.0703,0.0703 0.1406,0.1055 0.21094,0.10547 0.14059,3e-5 0.33981,-0.73825 0.59765,-2.21484 0.25779,-1.47653 0.58591,-2.21481 0.98438,-2.21485 0.63278,4e-5 1.81637,0.17582 3.55078,0.52735 1.92184,0.42191 2.88278,0.79691 2.88281,1.125 z m -8.96484,14.69531 c -3e-5,-2.88279 -0.8555,-5.35545 -2.56641,-7.41797 -1.80471,-2.22653 -4.1133,-3.33981 -6.92578,-3.33984 -2.81251,3e-5 -5.15626,1.10159 -7.03125,3.30469 -1.8047,2.10939 -2.70704,4.59377 -2.70703,7.45312 -1e-5,2.83595 0.90233,5.29689 2.70703,7.38281 1.87499,2.1797 4.21874,3.26954 7.03125,3.26953 2.74217,10e-6 5.03904,-1.11327 6.89063,-3.33984 1.73434,-2.08593 2.60153,-4.52342 2.60156,-7.3125 z" />
        <path
           inkscape:connector-curvature="0"
           id="path2994"
           style="font-size:72px;font-family:Berlin Sans FB;-inkscape-font-specification:Berlin Sans FB"
           d="m 215.18414,387.92191 c -2e-5,2.57815 -0.1758,4.9219 -0.52734,7.03125 -0.0703,0.53908 -0.30471,0.80861 -0.70313,0.80859 -0.49221,2e-5 -1.23635,-0.0527 -2.23242,-0.1582 -0.99611,-0.10545 -1.75197,-0.15818 -2.26758,-0.15821 -2.95314,3e-5 -4.83985,0.83206 -5.66015,2.4961 -0.4922,1.00783 -0.73829,3.10549 -0.73828,6.29297 l 0,3.86718 c -1e-5,1.31251 0.0527,3.3047 0.1582,5.97657 0.10546,2.67187 0.15819,4.66406 0.1582,5.97656 -1e-5,0.63281 -0.26954,0.94922 -0.80859,0.94922 -0.72657,0 -1.82813,-0.0117 -3.30469,-0.0352 -1.47657,-0.0234 -2.57813,-0.0352 -3.30469,-0.0352 -0.53906,0 -0.80859,-0.29296 -0.80859,-0.8789 0,-1.89844 0.0293,-4.75781 0.0879,-8.57813 0.0586,-3.8203 0.0879,-6.69139 0.0879,-8.61328 0,-5.78904 -0.53906,-10.44138 -1.61719,-13.95703 -0.0469,-0.18747 -0.0703,-0.32809 -0.0703,-0.42187 0,-0.28122 0.15234,-0.48044 0.45703,-0.59766 0.86719,-0.0937 2.08594,-0.23434 3.65625,-0.42188 2.53124,-0.46871 3.70312,-0.70309 3.51563,-0.70312 0.37499,3e-5 0.62108,0.69144 0.73828,2.07422 0.11718,1.38284 0.32811,2.07425 0.63281,2.07422 0.0469,3e-5 0.10546,-0.0234 0.17578,-0.0703 0.96093,-0.60934 1.92186,-1.21871 2.88282,-1.82812 1.05467,-0.63278 2.13279,-1.10153 3.23437,-1.40625 0.91404,-0.28122 2.08592,-0.42184 3.51563,-0.42188 1.8281,4e-5 2.74216,0.24613 2.74218,0.73829 z" />
        <path
           inkscape:connector-curvature="0"
           id="path2996"
           style="font-size:72px;font-family:Berlin Sans FB;-inkscape-font-specification:Berlin Sans FB"
           d="m 249.66131,397.66019 c -4e-5,3.3047 -0.10551,5.22658 -0.31641,5.76562 -0.3516,1.05471 -2.25003,4.13673 -5.69531,9.2461 -3.53909,5.22656 -5.64846,7.98046 -6.32813,8.26171 -0.32814,0.14063 -1.31252,0.21094 -2.95312,0.21094 -1.57033,0 -2.60158,-0.0703 -3.09375,-0.21094 -0.65627,-0.21093 -2.8008,-2.85937 -6.4336,-7.94531 -3.53906,-4.9453 -5.51953,-7.95701 -5.9414,-9.03515 -0.5625,-1.47655 -0.84375,-3.7617 -0.84375,-6.85547 0,-0.96092 0.0234,-2.40232 0.0703,-4.32422 0.0469,-1.92185 0.0703,-3.36325 0.0703,-4.32422 0,-0.51559 0.25781,-0.7734 0.77344,-0.77344 0.77343,4e-5 1.92773,0.0352 3.46289,0.10547 1.53515,0.0704 2.68944,0.1055 3.46289,0.10547 0.42187,3e-5 0.6328,0.23441 0.63281,0.70312 -1e-5,0.75004 -0.0469,1.85746 -0.14062,3.32227 -0.0938,1.46487 -0.14064,2.57229 -0.14063,3.32227 -1e-5,2.15627 0.11718,4.12502 0.35157,5.90625 0.11717,0.89064 1.30663,3.07032 3.56836,6.53906 2.2617,3.46876 3.66209,5.20313 4.20117,5.20312 0.5156,1e-5 1.79295,-1.69921 3.83203,-5.09765 2.0156,-3.32811 3.09372,-5.42577 3.23437,-6.29297 0.18748,-1.17186 0.28123,-3.18748 0.28125,-6.04688 -2e-5,-0.77341 -0.0762,-1.93356 -0.22851,-3.48047 -0.15237,-1.54684 -0.22854,-2.707 -0.22852,-3.48046 -2e-5,-0.35153 0.17576,-0.52732 0.52735,-0.52735 0.77341,3e-5 1.91013,-0.041 3.41015,-0.12305 1.49997,-0.082 2.62497,-0.12301 3.375,-0.12304 0.72653,3e-5 1.08981,3.31643 1.08985,9.94922 z" />
        <path
           inkscape:connector-curvature="0"
           id="path2998"
           style="font-size:72px;font-family:Berlin Sans FB;-inkscape-font-specification:Berlin Sans FB"
           d="m 262.28396,378.88675 c -10e-6,2.88285 -1.60548,4.32426 -4.8164,4.32422 -3.25782,4e-5 -4.88672,-1.44137 -4.88672,-4.32422 0,-1.28902 0.5039,-2.35543 1.51172,-3.19922 0.93749,-0.79683 2.06249,-1.19527 3.375,-1.19531 1.31249,4e-5 2.44335,0.4102 3.39257,1.23047 0.94921,0.82035 1.42382,1.87504 1.42383,3.16406 z m -0.24609,9.52734 c -10e-6,1.80472 -0.11134,4.52933 -0.33399,8.17383 -0.22266,3.64455 -0.33399,6.38088 -0.33398,8.20899 -10e-6,1.71095 0.0351,4.27149 0.10547,7.68164 0.0703,3.41016 0.10546,5.95898 0.10547,7.64648 -1e-5,0.49219 -0.21095,0.73828 -0.63281,0.73828 l -6.85547,0 c -0.49219,0 -0.73829,-0.48047 -0.73828,-1.4414 -10e-6,-1.61719 0.041,-4.04883 0.12304,-7.29493 0.082,-3.24608 0.12305,-5.68943 0.12305,-7.33007 0,-1.82811 -0.13477,-4.5703 -0.4043,-8.22657 -0.26953,-3.65622 -0.4043,-6.3984 -0.40429,-8.22656 -10e-6,-0.3984 0.24609,-0.59762 0.73828,-0.59766 0.42187,4e-5 1.07226,0.0586 1.95117,0.17579 0.8789,0.11722 1.54101,0.17581 1.98633,0.17578 0.4453,3e-5 1.10741,-0.0586 1.98632,-0.17578 0.8789,-0.11716 1.54101,-0.17575 1.98633,-0.17579 0.39843,4e-5 0.59765,0.22269 0.59766,0.66797 z" />
        <path
           inkscape:connector-curvature="0"
           id="path3000"
           style="font-size:72px;font-family:Berlin Sans FB;-inkscape-font-specification:Berlin Sans FB"
           d="m 283.08687,410.1055 c -2e-5,3.49219 -1.39455,6.29297 -4.1836,8.40234 -2.53126,1.92188 -5.61329,2.88282 -9.24609,2.88282 -1.40625,0 -2.20313,-0.0352 -2.39062,-0.10547 -0.39845,-0.1875 -0.59766,-0.76172 -0.59766,-1.72266 0,-0.51562 -0.0645,-1.28906 -0.19336,-2.32031 -0.12891,-1.03125 -0.19336,-1.79297 -0.19336,-2.28516 0,-0.30468 0.21093,-0.5039 0.63281,-0.59765 0.30469,-0.0703 0.73828,-0.0703 1.30078,0 0.72656,0.0703 1.07812,0.10547 1.05469,0.10546 4.42968,10e-6 6.64452,-1.35936 6.64453,-4.07812 -10e-6,-1.28905 -0.97267,-2.47264 -2.91797,-3.55078 -3.16406,-1.73436 -4.98047,-2.80077 -5.44921,-3.19922 -1.94532,-1.66404 -2.91797,-3.84373 -2.91797,-6.53906 0,-3.5156 1.32421,-6.25779 3.97265,-8.22657 2.39062,-1.75777 5.41405,-2.63668 9.07032,-2.63671 0.32811,3e-5 0.56834,0.15237 0.7207,0.45703 0.15233,0.30472 0.4453,1.25394 0.8789,2.84765 0.43358,1.59378 0.65038,2.55472 0.6504,2.88282 -2e-5,0.25784 -0.22268,0.4219 -0.66797,0.49218 -1.50002,0.21097 -3.01174,0.41019 -4.53516,0.59766 -1.8047,0.49221 -2.70704,1.47659 -2.70703,2.95312 -1e-5,1.05472 0.94921,2.12112 2.84766,3.19922 2.81248,1.57034 4.59373,2.70705 5.34375,3.41016 1.92185,1.82814 2.88279,4.17189 2.88281,7.03125 z" />
        <path
           inkscape:connector-curvature="0"
           id="path3017"
           d="m 230.17112,388.00999 c -0.42139,-0.005 -0.75753,0.10128 -0.9375,0.28125 -0.42394,0.42393 -0.43783,1.69082 -0.4375,3.375 4e-5,0.22244 0,0.41927 0,0.65625 -4.6e-4,1.69156 0.0123,2.94985 0.4375,3.375 0.47991,0.47991 2.07512,0.48738 3.46875,-0.90625 0.34665,-0.34665 0.5461,-0.74801 0.6875,-1.15625 0.001,-0.003 0.0302,0.003 0.0312,0 0.14038,0.0194 0.28931,0.0312 0.4375,0.0312 0.14819,0 0.29712,-0.0119 0.4375,-0.0312 0.01,-0.001 0.0213,10e-4 0.0312,0 0.1414,0.40824 0.34085,0.8096 0.6875,1.15625 1.39363,1.39363 2.98884,1.38616 3.46875,0.90625 0.4252,-0.42515 0.43796,-1.68344 0.4375,-3.375 0,-0.23698 -4e-5,-0.43381 0,-0.65625 3.3e-4,-1.68418 -0.0136,-2.95107 -0.4375,-3.375 -0.17997,-0.17997 -0.51611,-0.28625 -0.9375,-0.28125 -0.70232,0.009 -1.66023,0.31649 -2.53125,1.1875 -0.35759,0.35761 -0.58,0.76542 -0.71875,1.1875 -0.14051,-0.0194 -0.28918,-0.0625 -0.4375,-0.0625 -0.14832,0 -0.29699,0.0431 -0.4375,0.0625 -0.13875,-0.42208 -0.36116,-0.82989 -0.71875,-1.1875 -0.87102,-0.87101 -1.82893,-1.17882 -2.53125,-1.1875 z"
           style="fill:#000000;fill-opacity:1;stroke:none" />
        <path
           transform="translate(5.3317908,19.32478)"
           d="m 229.46428,379.37112 c 0,0.51777 -0.41973,0.9375 -0.9375,0.9375 -0.51777,0 -0.9375,-0.41973 -0.9375,-0.9375 0,-0.51776 0.41973,-0.9375 0.9375,-0.9375 0.51777,0 0.9375,0.41974 0.9375,0.9375 z"
           sodipodi:ry="0.9375"
           sodipodi:rx="0.9375"
           sodipodi:cy="379.37112"
           sodipodi:cx="228.52678"
           id="path3828"
           style="fill:#000000;fill-opacity:1;stroke:none"
           sodipodi:type="arc" />
        <path
           transform="translate(5.3317908,24.547994)"
           d="m 229.46428,379.37112 c 0,0.51777 -0.41973,0.9375 -0.9375,0.9375 -0.51777,0 -0.9375,-0.41973 -0.9375,-0.9375 0,-0.51776 0.41973,-0.9375 0.9375,-0.9375 0.51777,0 0.9375,0.41974 0.9375,0.9375 z"
           sodipodi:ry="0.9375"
           sodipodi:rx="0.9375"
           sodipodi:cy="379.37112"
           sodipodi:cx="228.52678"
           id="path3828-4"
           style="font-size:300px;font-style:normal;font-variant:normal;font-weight:normal;font-stretch:normal;line-height:125%;letter-spacing:0px;word-spacing:0px;fill:#000000;fill-opacity:1;stroke:none;font-family:Archive;-inkscape-font-specification:Archive"
           sodipodi:type="arc" />
      </g>
    </g>
  </g>
</svg>
