<svg xmlns="http://www.w3.org/2000/svg" viewBox="0 0 512 512">
    <g>
        <path d="M454.448 175.434c-.001 41.751-1.333 66.032-3.997 72.842-4.442 13.325-28.427 52.263-71.954 116.814-44.712 66.032-71.362 100.824-79.949 104.377-4.146 1.777-16.582 2.665-37.309 2.665-19.839 0-32.868-.888-39.086-2.665-8.291-2.665-35.385-36.125-81.281-100.38-44.712-62.478-69.733-100.528-75.063-114.149-7.107-18.655-10.66-47.525-10.66-86.611 0-12.14.296-30.351.888-54.632.593-24.28.888-42.491.888-54.632 0-6.514 3.257-9.771 9.772-9.772 9.771.001 24.355.445 43.75 1.333 19.395.889 33.978 1.333 43.75 1.332 5.33 0 7.995 2.961 7.995 8.883 0 9.476-.593 23.467-1.777 41.973-1.185 18.507-1.777 32.498-1.777 41.973 0 27.242 1.48 52.115 4.442 74.619 1.48 11.252 16.508 38.79 45.082 82.614 28.574 43.824 46.266 65.736 53.077 65.736 6.514 0 22.652-21.468 48.413-64.403 25.465-42.047 39.086-68.548 40.863-79.505 2.369-14.805 3.553-40.27 3.553-76.395 0-9.771-.963-24.428-2.887-43.972-1.925-19.543-2.887-34.2-2.887-43.972 0-4.441 2.221-6.662 6.662-6.662 9.771 0 24.132-.518 43.083-1.555 18.95-1.036 33.164-1.554 42.639-1.554 9.179 0 13.768 41.899 13.769 125.697z"/>
        <path d="M208.212 53.515c-5.324-.063-9.571 1.28-11.844 3.553-5.356 5.356-5.532 21.362-5.527 42.639.001 2.81 0 5.297 0 8.291-.004 21.371.155 37.268 5.527 42.639 6.063 6.063 26.217 6.158 43.824-11.449 4.38-4.38 6.899-9.45 8.686-14.608h.394c1.774.245 3.655.394 5.527.394 1.872 0 3.754-.151 5.527-.394h.394c1.786 5.158 4.306 10.228 8.686 14.608 17.607 17.607 37.761 17.513 43.824 11.449 5.372-5.371 5.533-21.268 5.527-42.639 0-2.994-.001-5.481 0-8.291.004-21.278-.172-37.283-5.527-42.639-2.274-2.274-6.52-3.616-11.844-3.553-8.873.114-20.975 3.998-31.979 15.003-4.518 4.518-7.328 9.67-9.081 15.003-1.775-.245-3.653-.79-5.527-.79s-3.752.545-5.527.79c-1.753-5.332-4.563-10.485-9.081-15.003-11.004-11.004-23.106-14.893-31.979-15.003z"/>
        <path d="M266.674 188.571c0 6.542-5.303 11.844-11.844 11.844-6.542 0-11.844-5.303-11.844-11.844 0-6.541 5.303-11.844 11.844-11.844 6.542 0 11.844 5.303 11.844 11.844z"/>
        <path d="M266.674 254.56c0 6.542-5.303 11.844-11.844 11.844-6.542 0-11.844-5.303-11.844-11.844 0-6.541 5.303-11.844 11.844-11.844 6.542 0 11.844 5.303 11.844 11.844z"/>
    </g>
</svg>
