<svg xmlns="http://www.w3.org/2000/svg" viewBox="0 0 750 250">
    <g>
        <path d="M187.58 60.205c0 7.46-.285 18.67-.856 33.628-.571 14.959-.856 26.168-.856 33.628 0 3.654.038 9.059.114 16.215.076 7.156.114 12.523.114 16.1 0 16.671-1.523 30.184-4.567 40.537-4.111 14.007-11.457 25.235-22.038 33.685-1.446 1.142-2.474 1.713-3.083 1.713-.533 0-1.142-.419-1.827-1.256-5.405-6.09-10.734-11.533-15.986-16.329-.685-.609-1.028-1.18-1.028-1.713 0-.609.419-1.294 1.256-2.055 5.177-4.491 8.678-7.841 10.505-10.049 2.817-3.654 4.948-8.107 6.395-13.36 1.903-7.003 2.855-21.429 2.855-43.277l-.114-17.242c0-7.156-.457-18.689-1.37-34.599-.914-15.301-1.37-26.834-1.37-34.599 0-2.207 1.104-3.311 3.311-3.311 1.446 0 3.616.114 6.509.343 2.893.229 5.062.343 6.509.343 1.446 0 3.578-.114 6.395-.343 2.817-.228 4.91-.342 6.28-.343 1.903 0 2.855.761 2.855 2.284z"/>
        <path d="M313.859 67.97c0 .305-.114.99-.343 2.055-2.969 17.433-4.453 32.467-4.453 45.104 0 .761.951 17.851 2.855 51.27l.114 1.599c.076 2.208-.933 3.311-3.026 3.311-2.094 0-5.253.247-9.478.742s-7.365.742-9.42.742c-1.446 0-2.55-2.664-3.311-7.993-.761-5.329-1.485-7.993-2.17-7.993-.457 0-2.512 1.484-6.166 4.453-4.491 3.654-8.678 6.433-12.561 8.336-6.014 3.045-12.028 4.567-18.042 4.567-14.768 0-27.215-5.9-37.339-17.699-9.592-11.266-14.388-24.398-14.388-39.395 0-16.9 4.834-30.869 14.502-41.907 10.125-11.495 23.446-17.242 39.966-17.242 11.647 0 21.81 4.035 30.488 12.104 1.294 1.523 3.311 3.73 6.052 6.623.228.228.457.343.685.343.457 0 1.104-2.398 1.941-7.194.837-4.796 1.903-7.194 3.197-7.194 2.055 0 5.9.571 11.533 1.713 6.242 1.37 9.363 2.588 9.363 3.654zm-29.118 47.73c0-9.363-2.779-17.395-8.336-24.094-5.862-7.232-13.36-10.848-22.495-10.848-9.135 0-16.748 3.578-22.838 10.734-5.862 6.851-8.792 14.921-8.792 24.208 0 9.211 2.931 17.204 8.792 23.979 6.09 7.08 13.702 10.619 22.838 10.619 8.907 0 16.367-3.616 22.381-10.848 5.633-6.775 8.45-14.692 8.45-23.751z"/>
        <path d="M391.405 64.087c0 8.374-.571 15.986-1.713 22.838-.228 1.751-.99 2.626-2.284 2.626-1.599 0-4.016-.171-7.251-.514-3.235-.343-5.69-.514-7.365-.514-9.592 0-15.72 2.703-18.384 8.107-1.599 3.273-2.398 10.087-2.398 20.44v12.561c0 4.263.171 10.734.514 19.412.343 8.678.514 15.149.514 19.412 0 2.055-.875 3.083-2.626 3.083-2.36 0-5.938-.038-10.734-.114-4.796-.076-8.374-.114-10.734-.114-1.751 0-2.626-.952-2.626-2.855 0-6.166.095-15.453.285-27.862.19-12.408.285-21.734.285-27.976 0-18.803-1.751-33.914-5.253-45.332-.152-.609-.228-1.066-.228-1.37 0-.913.495-1.56 1.484-1.941 2.817-.304 6.775-.761 11.876-1.37 8.221-1.522 12.028-2.284 11.419-2.284 1.218 0 2.017 2.246 2.398 6.737.381 4.491 1.066 6.737 2.055 6.737.152 0 .343-.076.571-.228 3.121-1.979 6.242-3.958 9.363-5.938 3.426-2.055 6.927-3.578 10.505-4.567 2.969-.913 6.775-1.37 11.419-1.37 5.938 0 8.907.799 8.907 2.398z"/>
        <path d="M503.387 95.717c0 10.734-.343 16.976-1.028 18.727-1.142 3.426-7.308 13.436-18.498 30.031-11.495 16.976-18.346 25.921-20.554 26.834-1.066.457-4.263.685-9.592.685-5.1 0-8.45-.228-10.049-.685-2.132-.685-9.097-9.287-20.896-25.806-11.495-16.062-17.927-25.844-19.298-29.346-1.827-4.796-2.741-12.218-2.741-22.267 0-3.121.076-7.803.228-14.045.152-6.242.228-10.924.228-14.045 0-1.675.837-2.512 2.512-2.512 2.512 0 6.261.114 11.247.343 4.986.229 8.735.343 11.247.343 1.37 0 2.055.761 2.055 2.284 0 2.436-.152 6.033-.457 10.791-.305 4.758-.457 8.355-.457 10.791 0 7.004.381 13.398 1.142 19.184.381 2.893 4.244 9.972 11.59 21.239 7.346 11.267 11.894 16.9 13.645 16.9 1.675 0 5.824-5.519 12.446-16.557 6.547-10.81 10.048-17.623 10.505-20.44.609-3.806.913-10.353.914-19.64 0-2.512-.247-6.28-.742-11.305-.495-5.024-.742-8.792-.742-11.305 0-1.142.571-1.713 1.713-1.713 2.512 0 6.204-.133 11.076-.4 4.872-.266 8.526-.4 10.962-.4 2.36 0 3.54 10.772 3.54 32.315z"/>
        <path d="M544.385 34.741c0 9.363-5.215 14.045-15.644 14.045-10.581 0-15.872-4.682-15.872-14.045 0-4.187 1.637-7.65 4.91-10.391 3.045-2.588 6.699-3.882 10.962-3.882s7.936 1.332 11.019 3.997c3.083 2.664 4.625 6.09 4.625 10.277zm-.799 30.945c0 5.862-.362 14.711-1.085 26.549-.723 11.837-1.085 20.725-1.085 26.663 0 5.557.114 13.874.343 24.95.228 11.076.343 19.355.343 24.836 0 1.599-.685 2.398-2.055 2.398h-22.267c-1.599 0-2.398-1.561-2.398-4.682 0-5.253.133-13.151.4-23.694.266-10.543.4-18.479.4-23.808 0-5.938-.438-14.844-1.313-26.72-.875-11.875-1.313-20.782-1.313-26.72 0-1.294.799-1.941 2.398-1.941 1.37 0 3.483.19 6.337.571 2.855.381 5.005.571 6.452.571 1.446 0 3.597-.19 6.452-.571 2.855-.381 5.005-.571 6.452-.571 1.294 0 1.941.723 1.941 2.17z"/>
        <path d="M611.953 136.14c0 11.343-4.529 20.44-13.588 27.291-8.222 6.242-18.232 9.363-30.031 9.363-4.567 0-7.156-.114-7.765-.343-1.294-.609-1.941-2.474-1.941-5.595 0-1.675-.209-4.187-.628-7.536-.419-3.35-.628-5.824-.628-7.422 0-.99.685-1.637 2.055-1.941.99-.228 2.398-.228 4.225 0 2.36.228 3.502.343 3.426.343 14.388 0 21.581-4.415 21.581-13.246 0-4.187-3.159-8.031-9.478-11.533-10.277-5.633-16.177-9.097-17.699-10.391-6.318-5.405-9.478-12.484-9.478-21.239 0-11.419 4.301-20.325 12.903-26.72 7.765-5.709 17.585-8.564 29.46-8.564 1.066 0 1.846.495 2.341 1.484.495.99 1.446 4.073 2.855 9.249 1.408 5.177 2.112 8.298 2.112 9.363 0 .837-.723 1.37-2.17 1.599-4.872.685-9.782 1.332-14.73 1.941-5.862 1.599-8.792 4.796-8.792 9.592 0 3.426 3.083 6.889 9.249 10.391 9.135 5.1 14.92 8.792 17.357 11.076 6.242 5.938 9.363 13.55 9.363 22.838z" />
        <path d="M440.083 64.373c-1.369-.016-2.46.329-3.045.914-1.377 1.377-1.422 5.492-1.421 10.962v2.131c-.001 5.494.04 9.581 1.421 10.962 1.559 1.559 6.74 1.583 11.267-2.944 1.126-1.126 1.774-2.43 2.233-3.756h.101c.456.063.94.101 1.421.101.481 0 .965-.039 1.421-.101h.101c.459 1.326 1.107 2.63 2.233 3.756 4.527 4.527 9.708 4.502 11.267 2.944 1.381-1.381 1.422-5.468 1.421-10.962v-2.131c.001-5.47-.044-9.585-1.421-10.962-.585-.585-1.676-.93-3.045-.914-2.281.029-5.392 1.028-8.222 3.857-1.161 1.162-1.884 2.486-2.335 3.857-.456-.063-.939-.203-1.421-.203-.482 0-.965.14-1.421.203-.451-1.371-1.173-2.695-2.335-3.857-2.829-2.829-5.94-3.829-8.222-3.857z"/>
        <path d="M455.105 99.081c0 1.682-1.363 3.045-3.045 3.045s-3.045-1.363-3.045-3.045 1.363-3.045 3.045-3.045 3.045 1.363 3.045 3.045z"/>
        <path d="M455.105 116.046c0 1.682-1.363 3.045-3.045 3.045s-3.045-1.363-3.045-3.045 1.363-3.045 3.045-3.045 3.045 1.363 3.045 3.045z"/>
    </g>
</svg>
