<?xml version="1.0" encoding="UTF-8" standalone="no"?>
<!-- Created with Inkscape (http://www.inkscape.org/) -->

<svg
   xmlns:dc="http://purl.org/dc/elements/1.1/"
   xmlns:cc="http://creativecommons.org/ns#"
   xmlns:rdf="http://www.w3.org/1999/02/22-rdf-syntax-ns#"
   xmlns:svg="http://www.w3.org/2000/svg"
   xmlns="http://www.w3.org/2000/svg"
   xmlns:sodipodi="http://sodipodi.sourceforge.net/DTD/sodipodi-0.dtd"
   xmlns:inkscape="http://www.inkscape.org/namespaces/inkscape"
   width="512"
   height="512"
   id="svg2"
   version="1.1"
   inkscape:version="0.48.2 r9819"
   sodipodi:docname="jarvis-icon.svg">
  <defs
     id="defs4" />
  <sodipodi:namedview
     id="base"
     pagecolor="#ffffff"
     bordercolor="#666666"
     borderopacity="1.0"
     inkscape:pageopacity="0.0"
     inkscape:pageshadow="2"
     inkscape:zoom="0.98994949"
     inkscape:cx="699.42446"
     inkscape:cy="215.73908"
     inkscape:document-units="px"
     inkscape:current-layer="text2985"
     showgrid="false"
     inkscape:object-paths="false"
     inkscape:snap-intersection-paths="false"
     inkscape:object-nodes="false"
     inkscape:snap-smooth-nodes="false"
     inkscape:snap-nodes="true"
     inkscape:snap-object-midpoints="true"
     inkscape:window-width="1600"
     inkscape:window-height="838"
     inkscape:window-x="-8"
     inkscape:window-y="-8"
     inkscape:window-maximized="1"
     inkscape:snap-bbox="true"
     inkscape:snap-bbox-midpoints="true" />
  <metadata
     id="metadata7">
    <rdf:RDF>
      <cc:Work
         rdf:about="">
        <dc:format>image/svg+xml</dc:format>
        <dc:type
           rdf:resource="http://purl.org/dc/dcmitype/StillImage" />
        <dc:title />
      </cc:Work>
    </rdf:RDF>
  </metadata>
  <g
     inkscape:label="Layer 1"
     inkscape:groupmode="layer"
     id="layer1"
     transform="translate(0,-540.36215)">
    <g
       style="font-size:300px;font-style:normal;font-variant:normal;font-weight:normal;font-stretch:normal;line-height:125%;letter-spacing:0px;word-spacing:0px;fill:#000000;fill-opacity:1;stroke:none;font-family:Archive;-inkscape-font-specification:Archive"
       id="text2985"
       transform="translate(-5.555839,-19.445437)">
      <g
         id="g3067"
         transform="matrix(3.8901557,0,0,3.8901557,-1519.5716,-2833.5891)">
        <path
           inkscape:connector-curvature="0"
           id="path2996"
           style="font-size:72px;font-family:Berlin Sans FB;-inkscape-font-specification:Berlin Sans FB"
           d="m 508.88849,917.43731 c -1.3e-4,10.73294 -0.34267,16.97478 -1.02763,18.72547 -1.14192,3.42546 -7.3076,13.43519 -18.49711,30.0293 -11.49419,16.97471 -18.34496,25.91877 -20.55238,26.83221 -1.06573,0.45674 -4.26277,0.68509 -9.59108,0.68509 -5.10009,0 -8.44936,-0.22832 -10.04782,-0.68509 -2.13142,-0.68505 -9.09638,-9.2866 -20.89492,-25.80462 -11.49409,-16.06124 -17.92622,-25.84261 -19.29636,-29.34418 -1.82688,-4.79551 -2.74031,-12.21717 -2.74031,-22.26505 0,-3.12086 0.076,-7.80221 0.22831,-14.04412 0.15233,-6.24175 0.22832,-10.9231 0.22832,-14.04411 0,-1.67453 0.83731,-2.51184 2.51197,-2.51197 2.51193,1.3e-4 6.26084,0.11432 11.2467,0.34255 4.98583,0.22864 8.73471,0.34264 11.24671,0.34254 1.37014,10e-5 2.05519,0.76131 2.05522,2.28358 -3e-5,2.43596 -0.15232,6.03262 -0.4567,10.79 -0.30464,4.75758 -0.45677,8.35423 -0.45673,10.79 -4e-5,7.00309 0.38057,13.39716 1.14182,19.1822 0.38054,2.89261 4.24364,9.97173 11.58925,21.23743 7.3455,11.26577 11.89366,16.89862 13.64447,16.89859 1.67456,3e-5 5.82311,-5.51866 12.44559,-16.55605 6.54623,-10.80896 10.04772,-17.6217 10.50452,-20.43818 0.6089,-3.80594 0.91338,-10.35223 0.91344,-19.63893 -6e-5,-2.51187 -0.24748,-6.27978 -0.74215,-11.3038 -0.49486,-5.0238 -0.74224,-8.79174 -0.74218,-11.30377 -6e-5,-1.14169 0.57083,-1.71262 1.71272,-1.71272 2.51186,10e-5 6.20368,-0.13316 11.07541,-0.39964 4.87158,-0.26632 8.52533,-0.39951 10.96126,-0.39961 2.35961,1e-4 3.53946,10.77104 3.53959,32.31288 z" />
        <path
           inkscape:connector-curvature="0"
           id="path3017"
           d="m 445.58864,886.09559 c -1.36858,-0.0162 -2.46029,0.32893 -3.04479,0.91343 -1.37687,1.37683 -1.42198,5.49141 -1.42091,10.96126 1.3e-4,0.72244 0,1.3617 0,2.13136 -0.001,5.49381 0.0399,9.58046 1.42091,10.96125 1.55864,1.55865 6.73953,1.58291 11.26573,-2.9433 1.12585,-1.12584 1.77362,-2.42937 2.23285,-3.75524 0.003,-0.01 0.0981,0.01 0.10133,0 0.45593,0.063 0.93962,0.10133 1.42091,0.10133 0.48128,0 0.96498,-0.0387 1.4209,-0.10133 0.0325,-0.003 0.0692,0.003 0.10133,0 0.45924,1.32587 1.10701,2.6294 2.23285,3.75524 4.5262,4.52621 9.70709,4.50195 11.26574,2.9433 1.38095,-1.38079 1.42239,-5.46744 1.4209,-10.96125 0,-0.76966 -1.3e-4,-1.40892 0,-2.13136 10e-4,-5.46985 -0.0442,-9.58443 -1.4209,-10.96126 -0.58451,-0.5845 -1.67622,-0.92967 -3.0448,-0.91343 -2.28098,0.0292 -5.39206,1.02789 -8.22094,3.85673 -1.16137,1.16144 -1.88371,2.48592 -2.33434,3.85674 -0.45635,-0.063 -0.9392,-0.20298 -1.42091,-0.20298 -0.48171,0 -0.96455,0.13998 -1.4209,0.20298 -0.45063,-1.37082 -1.17297,-2.6953 -2.33434,-3.85674 -2.82888,-2.82884 -5.93996,-3.82854 -8.22094,-3.85673 z"
           style="fill:#000000;fill-opacity:1;stroke:none" />
        <path
           transform="matrix(3.24778,0,0,3.24778,-284.64004,-311.31287)"
           d="m 229.46428,379.37112 c 0,0.51777 -0.41973,0.9375 -0.9375,0.9375 -0.51777,0 -0.9375,-0.41973 -0.9375,-0.9375 0,-0.51776 0.41973,-0.9375 0.9375,-0.9375 0.51777,0 0.9375,0.41974 0.9375,0.9375 z"
           sodipodi:ry="0.9375"
           sodipodi:rx="0.9375"
           sodipodi:cy="379.37112"
           sodipodi:cx="228.52678"
           id="path3828"
           style="fill:#000000;fill-opacity:1;stroke:none"
           sodipodi:type="arc" />
        <path
           transform="matrix(3.24778,0,0,3.24778,-284.64004,-294.34902)"
           d="m 229.46428,379.37112 c 0,0.51777 -0.41973,0.9375 -0.9375,0.9375 -0.51777,0 -0.9375,-0.41973 -0.9375,-0.9375 0,-0.51776 0.41973,-0.9375 0.9375,-0.9375 0.51777,0 0.9375,0.41974 0.9375,0.9375 z"
           sodipodi:ry="0.9375"
           sodipodi:rx="0.9375"
           sodipodi:cy="379.37112"
           sodipodi:cx="228.52678"
           id="path3828-4"
           style="font-size:300px;font-style:normal;font-variant:normal;font-weight:normal;font-stretch:normal;line-height:125%;letter-spacing:0px;word-spacing:0px;fill:#000000;fill-opacity:1;stroke:none;font-family:Archive;-inkscape-font-specification:Archive"
           sodipodi:type="arc" />
      </g>
    </g>
  </g>
</svg>
