<svg xmlns="http://www.w3.org/2000/svg" viewBox="0 0 512 512">
	<g transform="translate(0,-540.36218)" fill="#000000">
		<path d="m 497.74899,693.10327 c 0,50.55449 -1.61341,79.95607 -4.84174,88.19717 -5.38055,16.14014 -34.4204,63.28467 -87.12711,141.44859 -54.1385,79.95617 -86.40668,122.08047 -96.80605,126.38517 -5.02034,2.1521 -20.07831,3.228 -45.17545,3.228 -24.02103,0 -39.80095,-1.0759 -47.32767,-3.228 -10.03764,-3.2287 -42.84464,-43.7378 -98.41946,-121.54313 C 63.908473,851.93929 33.613921,805.86633 27.157173,789.37051 18.556148,766.77976 14.2515,731.82206 14.2515,684.49439 c 0,-14.69777 0.360047,-36.74971 1.076014,-66.15128 0.715954,-29.40158 1.076025,-51.44747 1.076025,-66.15128 0,-7.88694 3.942821,-11.82965 11.82966,-11.82965 11.831476,0 29.491045,0.5373 52.973101,1.61341 23.48964,1.07611 41.14344,1.61492 52.9796,1.61492 6.45015,0 9.67879,3.5825 9.67879,10.75354 0,11.47548 -0.7159,28.41325 -2.15267,50.82692 -1.43012,22.40762 -2.15192,39.34538 -2.15192,50.82087 0,32.98407 1.7967,63.10608 5.38055,90.35544 1.79033,13.62165 19.98917,46.96745 54.5865,100.02832 34.59748,53.06844 56.02434,79.60207 64.27149,79.60207 7.88694,0 27.42644,-25.99633 58.61851,-77.98714 30.8379,-50.91017 47.32767,-83.00127 49.47989,-96.26875 2.8666,-17.9261 4.30444,-48.75795 4.30444,-92.50161 0,-11.82965 -1.16541,-29.57866 -3.49471,-53.24552 -2.33536,-23.66081 -3.50077,-41.40831 -3.50077,-53.24401 0,-5.3745 2.69104,-8.06553 8.07008,-8.06553 11.83116,0 29.21844,-0.6266 52.16941,-1.88584 22.94491,-1.2532 40.15511,-1.87979 51.63211,-1.87979 11.11375,0 16.67139,50.73308 16.67139,152.20379 z"/>
		<path d="m 199.59223,545.47635 c -6.45061,-0.0771 -11.59354,1.54833 -14.3436,4.29688 -6.48542,6.48693 -6.69731,25.866 -6.69126,51.63211 0,3.40541 0,6.41428 0,10.03916 -0.006,25.87659 0.18314,45.12701 6.69126,51.6306 7.33753,7.34207 31.74299,7.45558 53.06239,-13.86382 5.30336,-5.30336 8.35461,-11.44067 10.51742,-17.68998 0.0121,-0.0408 0.46163,0.047 0.47979,0 2.14617,0.30119 4.4225,0.47978 6.69277,0.47978 2.26422,0 4.54509,-0.18313 6.69126,-0.47978 0.15438,-0.0121 0.3254,0.0182 0.47978,0 2.16433,6.24931 5.21407,12.38662 10.51743,17.68998 21.3194,21.3194 45.7188,21.20589 53.06239,13.86382 6.50358,-6.50359 6.69731,-25.75401 6.69277,-51.6306 0,-3.62488 0,-6.63375 0,-10.03916 0.005,-25.76611 -0.20735,-45.14518 -6.69277,-51.63211 -2.75612,-2.74855 -7.89299,-4.37407 -14.3436,-4.29688 -10.74294,0.13471 -25.39833,4.84174 -38.71879,18.16221 -5.47439,5.47439 -8.87375,11.71159 -10.99721,18.16825 -2.15071,-0.29665 -4.42098,-0.95806 -6.69126,-0.95806 -2.27027,0 -4.5466,0.66141 -6.69277,0.95806 -2.12346,-6.45666 -5.52888,-12.69386 -10.99721,-18.16825 -13.32652,-13.32047 -27.97585,-18.03204 -38.72485,-18.16221 l 0.006,0 z"/>
		<path d="m 270.34309,708.94676 c 0,7.91721 -6.42034,14.3436 -14.34209,14.3436 -7.92326,0 -14.3436,-6.42639 -14.3436,-14.3436 0,-7.92174 6.42034,-14.34208 14.3436,-14.34208 7.92175,0 14.34209,6.42034 14.34209,14.34208 z"/>
		<path d="m 270.34309,788.84986 c 0,7.92326 -6.42034,14.3436 -14.34209,14.3436 -7.92326,0 -14.3436,-6.42034 -14.3436,-14.3436 0,-7.92175 6.42034,-14.34209 14.3436,-14.34209 7.92175,0 14.34209,6.42034 14.34209,14.34209 z"/>
	</g>
</svg>
