<svg xmlns="http://www.w3.org/2000/svg" viewBox="0 0 640 158.691">
	<defs>
		<radialGradient r="67.55" fy="451.44336" fx="-376.84473" cy="451.443" cx="-376.845" gradientTransform="matrix(1.2106457,0,0,1.088444,538.00023,-75.145723)" gradientUnits="userSpaceOnUse" id="gradient">
			<stop offset="0" style="stop-color: #71b280; stop-opacity: 1"/>
			<stop offset="1" style="stop-color: #134e6e; stop-opacity: 1"/>
		</radialGradient>
	</defs>
	<g transform="translate(0,-321.3093)">
		<path d="m 24.912 321.315 c -0.481 0.007 -0.968 0.022 -1.459 0.041 C 15.112 321.688 7.169 325.024 0 329.994 l 3.001 9.26 c 0.003 -0.001 0.006 0.001 0.008 0 36.859 -22.812 49.38 15.106 39.412 40.456 -3.593 9.139 -5.528 13.946 -6.616 16.597 -0.488 1.049 -0.942 2.113 -1.36 3.2 -0.001 0 -0.008 0.008 -0.008 0.008 -0.001 0.004 0.001 0.005 0 0.008 l 19.756 6.417 c 3.286 -2.425 6.586 -4.833 9.89 -7.237 l 0 -28.552 c -0.001 -23.623 -8.626 -48.447 -37.745 -48.838 -0.47 -0.005 -0.945 -0.007 -1.426 0 z m 112.308 0 c -29.12 0.39 -37.745 25.214 -37.745 48.838 l 0 28.543 c 3.303 2.403 6.599 4.817 9.882 7.246 l 19.764 -6.425 c -0.427 -1.112 -0.892 -2.202 -1.393 -3.275 -1.092 -2.665 -3.024 -7.461 -6.591 -16.531 -9.968 -25.35 2.553 -63.268 39.412 -40.456 0 0.001 0.005 -0.001 0.008 0 l 3.001 -9.26 c -7.169 -4.97 -15.112 -8.306 -23.453 -8.638 -0.982 -0.039 -1.946 -0.054 -2.885 -0.041 z m -67.831 45.663 0 1.525 0 26.355 c 3.244 -2.35 6.489 -4.702 9.733 -7.047 l 0 -18.471 0 -2.363 -9.733 0 z m 15.047 0 0 0.066 c -0.003 -0 -0.005 0 -0.008 0 l 0 20.767 c 3.247 2.345 6.496 4.69 9.741 7.038 l 0 -26.346 0 -1.525 -9.733 0 z m -51.64 37.588 c -1.115 4.179 -1.708 8.569 -1.708 13.099 0 15.916 7.336 30.119 18.811 39.412 l 12.211 -16.813 c -3.219 -9.741 -6.372 -19.502 -9.525 -29.264 l -19.789 -6.433 z m 97.957 0.008 -19.78 6.425 c -3.155 9.768 -6.299 19.539 -9.534 29.281 l 12.211 16.804 c 11.479 -9.293 18.819 -23.501 18.819 -39.42 0 -4.527 -0.603 -8.914 -1.716 -13.09 z M 66.421 443.371 54.201 460.192 c 7.938 5.158 17.401 8.166 27.573 8.166 10.17 0 19.644 -3.001 27.582 -8.158 l -12.228 -16.829 -30.707 0 z" fill="url(#gradient)"/>
		<g transform="matrix(1.3563372,0,0,1.3563372,-93.930827,-356.45209)" fill="#134e6e">
			<path d="m 257.99 565.819 c -0 5.248 -0.784 10.016 -2.352 14.304 -1.568 4.256 -3.776 7.904 -6.624 10.944 -2.848 3.008 -6.272 5.344 -10.272 7.008 -3.968 1.632 -8.352 2.448 -13.152 2.448 -4.8 0 -9.184 -0.816 -13.152 -2.448 -3.968 -1.664 -7.376 -4 -10.224 -7.008 -2.848 -3.04 -5.056 -6.688 -6.624 -10.944 -1.568 -4.288 -2.352 -9.056 -2.352 -14.304 -0 -5.216 0.784 -9.952 2.352 -14.208 1.568 -4.288 3.776 -7.936 6.624 -10.944 2.848 -3.04 6.256 -5.392 10.224 -7.056 3.968 -1.664 8.352 -2.496 13.152 -2.496 4.8 0 9.184 0.832 13.152 2.496 4 1.632 7.424 3.968 10.272 7.008 2.848 3.04 5.056 6.704 6.624 10.992 1.568 4.256 2.352 8.992 2.352 14.208 m -5.088 0 c -0 -4.736 -0.656 -8.992 -1.968 -12.768 -1.312 -3.776 -3.168 -6.976 -5.568 -9.6 -2.4 -2.624 -5.28 -4.624 -8.64 -6 -3.36 -1.408 -7.072 -2.112 -11.136 -2.112 -4.032 0 -7.728 0.704 -11.088 2.112 -3.36 1.376 -6.256 3.376 -8.688 6 -2.4 2.624 -4.272 5.824 -5.616 9.6 -1.312 3.776 -1.968 8.032 -1.968 12.768 -0 4.768 0.656 9.04 1.968 12.816 1.344 3.744 3.216 6.928 5.616 9.552 2.432 2.624 5.328 4.624 8.688 6 3.36 1.376 7.056 2.064 11.088 2.064 4.064 0 7.776 -0.688 11.136 -2.064 3.36 -1.376 6.24 -3.376 8.64 -6 2.4 -2.624 4.256 -5.808 5.568 -9.552 1.312 -3.776 1.968 -8.048 1.968 -12.816"/>
			<path d="m 270.307 599.803 0 -47.76 2.448 0 c 0.544 0 0.928 0.112 1.152 0.336 0.224 0.224 0.368 0.608 0.432 1.152 l 0.336 10.032 c 0.736 -1.952 1.568 -3.68 2.496 -5.184 0.96 -1.536 2.048 -2.832 3.264 -3.888 1.248 -1.056 2.624 -1.856 4.128 -2.4 1.536 -0.576 3.232 -0.864 5.088 -0.864 0.992 0 1.968 0.096 2.928 0.288 0.96 0.16 1.808 0.464 2.544 0.912 l -0.384 3.168 c -0.16 0.512 -0.464 0.768 -0.912 0.768 -0.384 0 -0.976 -0.112 -1.776 -0.336 -0.768 -0.224 -1.792 -0.336 -3.072 -0.336 -1.856 0 -3.504 0.288 -4.944 0.864 -1.44 0.576 -2.72 1.424 -3.84 2.544 -1.12 1.088 -2.112 2.464 -2.976 4.128 -0.832 1.632 -1.6 3.52 -2.304 5.664 l 0 30.912 -4.608 0"/>
			<path d="m 304.244 616.699 0 -64.656 2.544 0 c 0.8 0 1.264 0.4 1.392 1.2 l 0.432 7.392 c 2.112 -2.88 4.592 -5.168 7.44 -6.864 2.848 -1.696 6.032 -2.544 9.552 -2.544 5.856 0 10.416 2.032 13.68 6.096 3.296 4.064 4.944 10.16 4.944 18.288 -0 3.488 -0.464 6.752 -1.392 9.792 -0.896 3.008 -2.24 5.632 -4.032 7.872 -1.76 2.208 -3.936 3.952 -6.528 5.232 -2.56 1.28 -5.52 1.92 -8.88 1.92 -3.232 0 -6.032 -0.592 -8.4 -1.776 -2.368 -1.184 -4.416 -2.928 -6.144 -5.232 l 0 23.28 -4.608 0 m 20.064 -61.776 c -3.168 0 -6.032 0.816 -8.592 2.448 -2.56 1.632 -4.848 3.904 -6.864 6.816 l 0 25.2 c 1.824 2.752 3.84 4.688 6.048 5.808 2.208 1.088 4.752 1.632 7.632 1.632 2.816 0 5.28 -0.512 7.392 -1.536 2.112 -1.024 3.872 -2.464 5.28 -4.32 1.44 -1.888 2.512 -4.128 3.216 -6.72 0.736 -2.624 1.104 -5.504 1.104 -8.64 -0 -7.104 -1.312 -12.32 -3.936 -15.648 -2.624 -3.36 -6.384 -5.04 -11.28 -5.04"/>
			<path d="m 357.119 599.803 0 -69.84 4.608 0 0 30.192 c 2.208 -2.72 4.72 -4.88 7.536 -6.48 2.848 -1.6 6.032 -2.4 9.552 -2.4 2.624 0 4.928 0.416 6.912 1.248 2.016 0.832 3.68 2.032 4.992 3.6 1.312 1.568 2.304 3.456 2.976 5.664 0.672 2.208 1.008 4.704 1.008 7.488 l 0 30.528 -4.608 0 0 -30.528 c -0 -4.48 -1.024 -7.984 -3.072 -10.512 -2.048 -2.56 -5.168 -3.84 -9.36 -3.84 -3.136 0 -6.048 0.8 -8.736 2.4 -2.688 1.568 -5.088 3.76 -7.2 6.576 l 0 35.904 -4.608 0"/>
			<path d="m 428.666 551.275 c 2.688 0 5.184 0.464 7.488 1.392 2.304 0.928 4.304 2.288 6 4.08 1.696 1.76 3.024 3.936 3.984 6.528 0.992 2.592 1.488 5.568 1.488 8.928 -0 0.704 -0.096 1.184 -0.288 1.44 -0.192 0.256 -0.512 0.384 -0.96 0.384 l -34.752 0 0 0.912 c -0 3.584 0.416 6.736 1.248 9.456 0.832 2.72 2.016 5.008 3.552 6.864 1.536 1.824 3.392 3.2 5.568 4.128 2.176 0.928 4.608 1.392 7.296 1.392 2.4 0 4.48 -0.256 6.24 -0.768 1.76 -0.544 3.232 -1.136 4.416 -1.776 1.216 -0.672 2.176 -1.264 2.88 -1.776 0.704 -0.544 1.216 -0.816 1.536 -0.816 0.416 0 0.736 0.16 0.96 0.48 l 1.248 1.536 c -0.768 0.96 -1.792 1.856 -3.072 2.688 -1.248 0.832 -2.656 1.552 -4.224 2.16 -1.536 0.576 -3.2 1.04 -4.992 1.392 -1.76 0.352 -3.536 0.528 -5.328 0.528 -3.264 0 -6.24 -0.56 -8.928 -1.68 -2.688 -1.152 -4.992 -2.816 -6.912 -4.992 -1.92 -2.176 -3.408 -4.832 -4.464 -7.968 -1.024 -3.168 -1.536 -6.784 -1.536 -10.848 -0 -3.424 0.48 -6.576 1.44 -9.456 0.992 -2.912 2.4 -5.408 4.224 -7.488 1.856 -2.112 4.112 -3.76 6.768 -4.944 2.688 -1.184 5.728 -1.776 9.12 -1.776 m 0.048 3.408 c -2.464 0 -4.672 0.384 -6.624 1.152 -1.952 0.768 -3.648 1.872 -5.088 3.312 -1.408 1.44 -2.56 3.168 -3.456 5.184 -0.864 2.016 -1.44 4.272 -1.728 6.768 l 31.68 0 c -0 -2.56 -0.368 -4.848 -1.104 -6.864 -0.704 -2.048 -1.712 -3.776 -3.024 -5.184 -1.312 -1.408 -2.88 -2.48 -4.704 -3.216 -1.792 -0.768 -3.776 -1.152 -5.952 -1.152"/>
			<path d="m 464.137 552.043 0 30.528 c -0 4.48 1.024 8 3.072 10.56 2.048 2.528 5.168 3.792 9.36 3.792 3.104 0 6 -0.784 8.688 -2.352 2.688 -1.6 5.104 -3.808 7.248 -6.624 l 0 -35.904 4.608 0 0 47.76 -2.544 0 c -0.8 0 -1.264 -0.416 -1.392 -1.248 l -0.432 -7.104 c -2.208 2.752 -4.768 4.96 -7.68 6.624 -2.88 1.664 -6.096 2.496 -9.648 2.496 -2.656 0 -4.976 -0.416 -6.96 -1.248 -1.984 -0.832 -3.632 -2.032 -4.944 -3.6 -1.312 -1.568 -2.304 -3.456 -2.976 -5.664 -0.672 -2.208 -1.008 -4.704 -1.008 -7.488 l 0 -30.528 4.608 0"/>
			<path d="m 539 557.947 c -0.256 0.448 -0.624 0.672 -1.104 0.672 -0.352 0 -0.8 -0.192 -1.344 -0.576 -0.544 -0.416 -1.28 -0.864 -2.208 -1.344 -0.896 -0.512 -2.016 -0.96 -3.36 -1.344 -1.344 -0.416 -2.976 -0.624 -4.896 -0.624 -1.728 0 -3.312 0.256 -4.752 0.768 -1.408 0.48 -2.624 1.136 -3.648 1.968 -0.992 0.832 -1.76 1.808 -2.304 2.928 -0.544 1.088 -0.816 2.24 -0.816 3.456 -0 1.504 0.384 2.752 1.152 3.744 0.768 0.992 1.76 1.84 2.976 2.544 1.248 0.704 2.672 1.312 4.272 1.824 1.6 0.512 3.216 1.024 4.848 1.536 1.664 0.512 3.296 1.088 4.896 1.728 1.6 0.608 3.008 1.376 4.224 2.304 1.248 0.928 2.256 2.064 3.024 3.408 0.768 1.344 1.152 2.976 1.152 4.896 -0 2.08 -0.368 4.016 -1.104 5.808 -0.736 1.792 -1.824 3.344 -3.264 4.656 -1.408 1.312 -3.152 2.352 -5.232 3.12 -2.08 0.768 -4.464 1.152 -7.152 1.152 -3.36 0 -6.256 -0.528 -8.688 -1.584 -2.432 -1.088 -4.608 -2.496 -6.528 -4.224 l 1.056 -1.632 c 0.16 -0.256 0.336 -0.448 0.528 -0.576 0.224 -0.128 0.512 -0.192 0.864 -0.192 0.416 0 0.912 0.256 1.488 0.768 0.608 0.512 1.408 1.072 2.4 1.68 0.992 0.576 2.208 1.12 3.648 1.632 1.472 0.512 3.28 0.768 5.424 0.768 2.016 0 3.792 -0.272 5.328 -0.816 1.536 -0.576 2.816 -1.344 3.84 -2.304 1.024 -0.96 1.792 -2.08 2.304 -3.36 0.544 -1.312 0.816 -2.688 0.816 -4.128 -0 -1.6 -0.384 -2.928 -1.152 -3.984 -0.768 -1.056 -1.776 -1.952 -3.024 -2.688 -1.248 -0.736 -2.672 -1.36 -4.272 -1.872 -1.568 -0.512 -3.184 -1.024 -4.848 -1.536 -1.664 -0.512 -3.296 -1.072 -4.896 -1.68 -1.568 -0.608 -2.976 -1.376 -4.224 -2.304 -1.248 -0.928 -2.256 -2.048 -3.024 -3.36 -0.768 -1.344 -1.152 -3.008 -1.152 -4.992 -0 -1.696 0.368 -3.328 1.104 -4.896 0.736 -1.568 1.776 -2.944 3.12 -4.128 1.376 -1.184 3.04 -2.128 4.992 -2.832 1.952 -0.704 4.144 -1.056 6.576 -1.056 2.912 0 5.488 0.416 7.728 1.248 2.272 0.832 4.336 2.112 6.192 3.84 l -0.96 1.584"/>
		</g>
	</g>
</svg>
